<svg version="1.1" id="Layer_1" xmlns="http://www.w3.org/2000/svg" xmlns:xlink="http://www.w3.org/1999/xlink" x="0px" y="0px"
	 width="100%" viewBox="0 0 1024 559" enable-background="new 0 0 1024 559" xml:space="preserve">
<path fill="#FEFEFD" opacity="1.000000" stroke="none" 
	d="
M1025.000000,347.000000 
	C1025.000000,417.966736 1025.000000,488.933472 1025.000000,560.000000 
	C791.642578,560.000000 558.285156,560.000000 324.629089,559.632202 
	C339.722748,556.927307 355.115051,554.590210 370.643738,552.232422 
	C368.921997,533.509033 367.261688,515.453735 365.555573,496.900177 
	C370.391785,499.680573 374.177582,502.523468 378.425049,504.189301 
	C403.304047,513.946899 426.998749,509.756927 447.895386,494.596893 
	C475.963318,474.234283 484.073975,445.501068 476.570404,412.367828 
	C465.914886,365.316406 420.156311,348.662872 378.848663,366.077911 
	C368.540405,370.423798 360.554840,377.702423 353.680481,387.534637 
	C353.037201,382.130371 352.506927,377.675293 351.900787,372.583069 
	C337.351440,384.784363 320.831818,391.389130 303.301300,395.908508 
	C304.497803,409.015442 305.681335,421.593262 306.787292,434.177856 
	C308.929443,458.553314 310.993378,482.935669 313.156189,507.309265 
	C314.715088,524.877808 316.381500,542.436768 318.000000,560.000000 
	C212.359634,560.000000 106.719269,560.000000 1.039452,560.000000 
	C1.039452,373.739349 1.039452,187.478699 1.039452,1.000000 
	C281.024048,1.000000 561.048157,1.000000 841.394653,1.351558 
	C839.629944,2.251479 837.525574,2.741981 835.458435,3.357467 
	C820.532166,7.801781 807.154419,15.000042 796.342712,26.341560 
	C778.768250,44.777222 775.428467,66.992874 780.572144,90.883957 
	C786.232117,117.173256 780.502625,139.815247 761.511963,159.212204 
	C748.916443,172.077194 734.101990,181.813370 718.964539,191.161072 
	C712.228638,195.320679 706.127441,193.808350 702.564819,187.823853 
	C699.409851,182.524246 701.241821,176.894562 707.750671,172.705841 
	C712.355774,169.742188 717.232605,167.200027 721.832581,164.228912 
	C734.936523,155.765060 748.640869,148.042160 758.858887,135.834000 
	C767.168274,125.906334 769.673462,114.531219 767.315369,101.485283 
	C760.004211,106.534119 753.478760,111.706146 746.351196,115.839897 
	C723.224609,129.252533 700.044983,142.592377 676.568420,155.377609 
	C652.627686,168.415619 637.003601,186.500641 635.385071,215.038712 
	C634.493042,230.769058 625.856689,242.446075 612.181213,250.068710 
	C596.386292,258.872681 580.426025,267.383118 564.449890,275.855743 
	C561.758728,277.282928 560.467041,278.738007 560.872864,281.948303 
	C561.790039,289.205078 562.394104,296.502258 563.078125,303.787445 
	C563.585205,309.188293 564.017578,314.596130 564.529053,320.533569 
	C566.292664,319.499939 567.416138,318.874329 568.507507,318.196899 
	C588.520569,305.774048 608.436890,293.191681 628.582581,280.987946 
	C637.426819,275.630280 647.284668,272.541016 657.666260,274.429291 
	C664.606934,275.691711 671.392761,278.250977 677.986511,280.884247 
	C692.749023,286.779846 707.720703,290.020416 723.016235,283.781677 
	C732.335693,279.980530 741.663940,275.741882 750.107239,270.326294 
	C803.580078,236.028229 849.622559,193.259064 890.991394,145.280014 
	C893.148621,142.778091 895.434631,140.102127 896.562927,137.095276 
	C897.355774,134.982498 897.160583,130.928131 895.822021,129.981552 
	C894.125122,128.781601 890.643127,129.314575 888.266479,130.106888 
	C886.202515,130.794952 884.575989,132.849777 882.807068,134.360153 
	C862.195251,151.958755 842.311279,170.510574 820.792725,186.919052 
	C797.840332,204.420853 773.417908,220.007019 749.477356,236.192917 
	C742.822815,240.691956 734.594299,239.566452 729.274414,234.380600 
	C724.037354,229.275467 722.961975,221.030365 727.375000,214.215210 
	C729.769348,210.517471 732.877991,207.015396 736.365906,204.339417 
	C750.590454,193.426331 765.312012,183.154556 779.412231,172.088181 
	C791.507507,162.595367 802.409180,151.777527 809.095947,137.575821 
	C817.081421,120.615944 817.607788,102.993591 813.386902,84.946144 
	C809.964233,70.311493 807.051697,55.652271 812.773193,40.791149 
	C819.366089,23.666731 832.251892,12.698792 847.690125,4.045077 
	C848.962585,3.331834 849.904480,2.028919 851.000000,0.999996 
	C908.950867,1.000000 966.901672,1.000000 1025.000000,1.000000 
	C1025.000000,111.024033 1025.000000,221.048141 1024.615723,331.471924 
	C1023.748596,330.350494 1023.138550,328.856964 1022.801575,327.304169 
	C1017.904968,304.739594 1006.518250,287.149597 984.571899,277.826416 
	C965.461182,269.707855 945.945801,270.798492 926.355713,275.830780 
	C889.229248,285.367828 861.592163,317.483826 865.962036,359.702698 
	C868.689453,386.053497 881.490601,406.136322 906.386292,416.231964 
	C939.275696,429.569244 970.877014,424.141418 1000.595154,406.027649 
	C1008.776306,401.041077 1015.656250,394.285645 1020.979248,385.765839 
	C1011.361877,378.300934 1002.095276,371.108276 992.619385,363.753235 
	C982.841797,376.819977 969.797424,382.887939 954.402100,384.546844 
	C938.980896,386.208557 921.673523,379.420471 917.357056,363.363861 
	C922.095276,362.597839 926.808411,361.823456 931.525635,361.075287 
	C955.977173,357.197357 980.421997,353.276184 1004.887024,349.485535 
	C1011.559509,348.451691 1018.294006,347.817566 1025.000000,347.000000 
M850.827576,38.609196 
	C839.268921,44.051373 831.070923,52.697132 829.705505,65.529999 
	C828.848206,73.586807 829.921631,82.091629 831.523254,90.117195 
	C834.899353,107.034615 836.082947,123.733192 826.543091,138.912613 
	C820.316589,148.820023 813.414062,158.702179 805.062317,166.785461 
	C790.683655,180.701859 774.938599,193.206375 760.151917,205.971161 
	C760.536316,205.853088 761.750183,205.632706 762.828003,205.123962 
	C769.124573,202.151962 775.467896,199.264389 781.650513,196.068069 
	C802.689453,185.191116 822.763916,172.894180 839.310120,155.617599 
	C847.199280,147.380219 853.558594,138.139893 857.141663,127.175583 
	C862.064575,112.111389 859.961304,97.671455 853.150085,83.717239 
	C845.958862,68.984375 842.961548,54.223091 852.734619,38.952709 
	C852.743042,38.678486 852.751465,38.404263 852.759888,38.130043 
	C852.346375,38.234859 851.932922,38.339672 850.827576,38.609196 
M510.024933,24.590704 
	C509.838531,23.382330 509.652130,22.173956 509.449341,20.859545 
	C492.978363,23.452206 476.961426,25.973394 460.661011,28.539204 
	C466.912109,100.750404 473.136078,172.648224 479.386993,244.857376 
	C497.072906,242.077133 514.041992,239.409576 531.117798,236.725235 
	C528.831909,211.741135 526.597717,187.322739 524.338501,162.630295 
	C528.694885,165.349197 532.373352,168.208267 536.490723,170.123871 
	C564.355774,183.088043 603.006836,173.040756 622.416626,146.769272 
	C645.990112,114.862190 647.532104,80.067589 629.618591,45.646191 
	C606.269836,0.780733 549.384338,1.658416 522.752380,25.108381 
	C518.722534,28.656740 515.402161,33.010845 511.288544,37.499729 
	C510.856445,33.267624 510.459167,29.376671 510.024933,24.590704 
M100.106659,243.459808 
	C126.023819,244.768509 148.084686,236.471436 164.222916,215.797806 
	C184.500854,189.820999 187.382950,160.466919 177.494766,129.847061 
	C162.986786,84.921471 117.305138,69.743340 77.935211,88.115913 
	C68.563850,92.489189 61.459026,99.571304 55.110046,108.958748 
	C54.383816,102.563179 53.783211,97.273903 53.163822,91.819252 
	C36.703365,94.485382 20.860746,97.051445 4.608226,99.683899 
	C10.733674,170.515747 16.822401,240.923004 22.935341,311.610199 
	C40.359505,308.869690 57.187393,306.222961 74.251381,303.539093 
	C72.086250,278.954437 69.978210,255.018051 67.739395,229.596741 
	C77.363632,238.461594 87.749725,242.263290 100.106659,243.459808 
M726.853149,310.339966 
	C710.864441,312.843079 694.875793,315.346191 679.097107,317.816437 
	C679.599731,323.404236 680.022888,328.109009 680.441101,332.758240 
	C674.551147,329.614563 669.311340,326.018738 663.531250,323.890533 
	C649.197388,318.612854 634.664612,320.267548 620.428833,324.588928 
	C593.120544,332.878510 575.123169,350.903900 568.278198,378.525696 
	C561.680176,405.151215 566.008057,430.257050 584.503479,451.496063 
	C599.889526,469.164459 620.205444,474.530334 642.720398,471.741333 
	C661.570557,469.406281 677.725037,461.574463 688.714600,445.200287 
	C689.017212,444.749512 689.533997,444.442535 690.414917,443.652252 
	C690.863342,449.663544 691.264282,455.037994 691.687012,460.705170 
	C709.184021,457.959259 726.012817,455.318237 742.970093,452.657043 
	C742.580322,447.223633 742.310059,442.085571 741.827515,436.967529 
	C739.655884,413.933807 737.396301,390.908417 735.222839,367.874878 
	C733.487244,349.481171 731.861633,331.076935 730.045776,312.691345 
	C729.954224,311.764099 728.519592,310.969513 726.853149,310.339966 
M381.328339,203.094681 
	C389.020447,201.789352 396.837067,200.979492 404.380829,199.083847 
	C425.297760,193.827682 441.879059,182.168915 454.219025,164.033951 
	C444.237396,155.812836 434.451141,147.752640 424.683197,139.707504 
	C412.045624,156.425537 395.683777,163.533127 375.590515,161.789017 
	C361.421051,160.559097 350.950592,151.621002 347.135162,137.965210 
	C383.868652,132.230499 420.560944,126.502220 457.732788,120.699074 
	C457.160950,114.808311 456.967224,109.156372 456.013763,103.635635 
	C452.260010,81.900269 443.325623,63.080750 424.325867,50.469704 
	C407.542816,39.330009 388.927032,36.983212 369.359131,39.836803 
	C348.302155,42.907547 329.813568,51.133701 315.466522,67.246071 
	C296.467896,88.582420 291.543152,113.779457 296.484772,141.201981 
	C300.907379,165.744339 314.012115,184.263229 336.653412,195.419937 
	C350.432770,202.209854 365.203156,203.902527 381.328339,203.094681 
M245.484467,367.077240 
	C252.763809,369.775360 259.841736,373.521027 267.361816,374.967072 
	C286.707153,378.686951 305.360870,375.320190 323.236328,367.180054 
	C357.225098,351.702209 375.762329,319.147980 371.105835,282.942780 
	C367.691467,256.395264 346.550323,234.723297 320.102142,230.778656 
	C300.346436,227.832169 281.253418,230.395050 263.216858,238.917572 
	C238.946182,250.385803 221.871170,268.360870 216.370789,295.287170 
	C210.125992,325.857727 220.762070,351.659393 245.484467,367.077240 
M831.250671,396.396484 
	C829.556213,391.637299 827.186157,386.996399 826.327271,382.090912 
	C825.069946,374.910492 824.879272,367.541840 824.264282,360.250854 
	C823.441467,350.496124 822.647705,340.739014 821.826721,330.804688 
	C832.808044,328.983337 843.369202,327.231689 853.963013,325.474609 
	C852.956726,313.652954 852.000977,302.425812 851.026489,290.977783 
	C840.137390,292.667236 829.582397,294.304810 818.771423,295.982117 
	C817.466248,281.307587 816.206543,267.143555 814.945557,252.965942 
	C814.291504,253.051041 813.917542,252.987717 813.702942,253.143600 
	C798.379944,264.273926 783.042053,275.384521 767.821106,286.653107 
	C766.822388,287.392517 766.245972,289.370483 766.299988,290.739746 
	C766.468689,295.012848 767.034485,299.270294 767.487305,303.957458 
	C760.108032,305.234772 753.038757,306.458435 745.952026,307.685120 
	C747.041809,319.583038 748.068604,330.793152 749.105957,342.118927 
	C756.351501,341.024017 763.209045,339.987732 770.366455,338.906158 
	C770.538330,340.632965 770.673706,341.922791 770.794312,343.213959 
	C772.789795,364.574524 774.118591,386.025909 777.016174,407.263336 
	C778.884155,420.954559 785.916626,432.653473 799.437134,438.065613 
	C820.919495,446.664795 841.139099,441.655182 860.272095,430.301727 
	C861.321777,429.678864 862.142395,427.593262 862.037476,426.270386 
	C861.137573,414.920441 859.999695,403.589355 858.896912,391.870911 
	C856.658325,393.285889 854.968018,394.636566 853.059265,395.510101 
	C846.191650,398.652954 839.250488,401.636841 831.250671,396.396484 
M536.652161,485.171814 
	C542.162231,484.295258 547.672302,483.418701 553.440430,482.501099 
	C546.723755,409.042419 540.053528,336.091949 533.376831,263.070190 
	C515.754395,265.869019 498.777740,268.565277 481.626099,271.289307 
	C488.114136,344.600983 494.563843,417.479858 501.038910,490.645081 
	C512.875122,488.816986 524.327332,487.048218 536.652161,485.171814 
M198.278992,214.125397 
	C198.664566,218.071808 199.050156,222.018219 199.494720,226.568283 
	C216.644745,223.813324 233.420410,221.118515 250.431793,218.385834 
	C249.791077,210.049271 249.207535,202.434143 248.620193,194.819305 
	C247.136597,175.584763 244.950516,156.371445 244.370911,137.109741 
	C243.830750,119.158806 255.376877,106.238373 273.058685,102.913528 
	C278.555695,101.879883 284.158508,101.408859 289.756165,100.674591 
	C288.325867,85.011383 286.910797,69.515022 285.455444,53.577759 
	C263.473999,55.170624 247.020645,64.312485 237.005219,85.446220 
	C236.263077,77.440147 235.641449,70.734177 235.017685,64.005173 
	C218.424164,66.642662 202.279648,69.208794 186.187698,71.766563 
	C190.229584,119.390778 194.210220,166.293350 198.278992,214.125397 
M190.538071,404.177551 
	C190.695160,404.122314 190.857437,404.078552 191.008591,404.010193 
	C202.553253,398.787659 202.642578,398.783752 202.128189,386.491821 
	C201.820862,379.148224 201.180740,371.818542 200.675903,364.268616 
	C197.548309,365.926849 194.998138,367.488068 192.285950,368.680908 
	C180.080185,374.049347 172.391403,369.193939 171.801605,355.963013 
	C171.423584,347.483734 170.677536,339.019348 170.384857,330.538300 
	C170.146530,323.632355 170.336426,316.711578 170.336426,309.671387 
	C179.379440,308.162109 188.755905,306.597137 198.237671,305.014618 
	C197.552750,294.185028 196.917892,284.147003 196.274902,273.980408 
	C186.597260,275.605957 177.492432,277.135284 167.678482,278.783722 
	C167.026703,266.633850 166.401596,254.981567 165.745163,242.745041 
	C152.314499,253.505615 137.899475,260.973358 121.405510,264.187500 
	C121.738861,271.651947 122.055595,278.744446 122.381096,286.033142 
	C115.818802,287.137451 109.510139,288.199066 103.029541,289.289612 
	C103.725449,299.881287 104.394928,310.070709 105.080719,320.508453 
	C111.575989,319.490326 117.583809,318.548615 124.018837,317.539917 
	C124.724861,332.689301 125.233742,347.486664 126.181015,362.255890 
	C126.636887,369.363525 127.276794,376.575592 128.964127,383.463348 
	C132.301254,397.085602 140.999893,405.636078 155.078278,408.309082 
	C167.069946,410.585907 178.543442,408.351440 190.538071,404.177551 
M194.362976,468.818909 
	C177.166718,480.475800 172.352753,501.640839 180.665283,518.447388 
	C190.701935,538.739746 214.967560,546.137268 235.104767,534.518311 
	C251.768112,524.903687 267.918182,514.402710 284.441345,504.538544 
	C287.086182,502.959595 287.052979,501.269287 286.827942,498.850006 
	C285.163910,480.961151 283.572876,463.065460 281.970917,445.170868 
	C281.372162,438.482819 280.805511,431.791931 280.184418,424.644623 
	C263.787354,432.964111 248.106720,440.855072 232.487335,448.865448 
	C219.937241,455.301697 207.461334,461.882599 194.362976,468.818909 
z"/>
<path fill="#070707" opacity="1.000000" stroke="none" 
	d="
M850.550049,0.999996 
	C849.904480,2.028919 848.962585,3.331834 847.690125,4.045077 
	C832.251892,12.698792 819.366089,23.666731 812.773193,40.791149 
	C807.051697,55.652271 809.964233,70.311493 813.386902,84.946144 
	C817.607788,102.993591 817.081421,120.615944 809.095947,137.575821 
	C802.409180,151.777527 791.507507,162.595367 779.412231,172.088181 
	C765.312012,183.154556 750.590454,193.426331 736.365906,204.339417 
	C732.877991,207.015396 729.769348,210.517471 727.375000,214.215210 
	C722.961975,221.030365 724.037354,229.275467 729.274414,234.380600 
	C734.594299,239.566452 742.822815,240.691956 749.477356,236.192917 
	C773.417908,220.007019 797.840332,204.420853 820.792725,186.919052 
	C842.311279,170.510574 862.195251,151.958755 882.807068,134.360153 
	C884.575989,132.849777 886.202515,130.794952 888.266479,130.106888 
	C890.643127,129.314575 894.125122,128.781601 895.822021,129.981552 
	C897.160583,130.928131 897.355774,134.982498 896.562927,137.095276 
	C895.434631,140.102127 893.148621,142.778091 890.991394,145.280014 
	C849.622559,193.259064 803.580078,236.028229 750.107239,270.326294 
	C741.663940,275.741882 732.335693,279.980530 723.016235,283.781677 
	C707.720703,290.020416 692.749023,286.779846 677.986511,280.884247 
	C671.392761,278.250977 664.606934,275.691711 657.666260,274.429291 
	C647.284668,272.541016 637.426819,275.630280 628.582581,280.987946 
	C608.436890,293.191681 588.520569,305.774048 568.507507,318.196899 
	C567.416138,318.874329 566.292664,319.499939 564.529053,320.533569 
	C564.017578,314.596130 563.585205,309.188293 563.078125,303.787445 
	C562.394104,296.502258 561.790039,289.205078 560.872864,281.948303 
	C560.467041,278.738007 561.758728,277.282928 564.449890,275.855743 
	C580.426025,267.383118 596.386292,258.872681 612.181213,250.068710 
	C625.856689,242.446075 634.493042,230.769058 635.385071,215.038712 
	C637.003601,186.500641 652.627686,168.415619 676.568420,155.377609 
	C700.044983,142.592377 723.224609,129.252533 746.351196,115.839897 
	C753.478760,111.706146 760.004211,106.534119 767.315369,101.485283 
	C769.673462,114.531219 767.168274,125.906334 758.858887,135.834000 
	C748.640869,148.042160 734.936523,155.765060 721.832581,164.228912 
	C717.232605,167.200027 712.355774,169.742188 707.750671,172.705841 
	C701.241821,176.894562 699.409851,182.524246 702.564819,187.823853 
	C706.127441,193.808350 712.228638,195.320679 718.964539,191.161072 
	C734.101990,181.813370 748.916443,172.077194 761.511963,159.212204 
	C780.502625,139.815247 786.232117,117.173256 780.572144,90.883957 
	C775.428467,66.992874 778.768250,44.777222 796.342712,26.341560 
	C807.154419,15.000042 820.532166,7.801781 835.458435,3.357467 
	C837.525574,2.741981 839.629944,2.251479 841.858521,1.351558 
	C844.700012,1.000000 847.400024,1.000000 850.550049,0.999996 
z"/>
<path fill="#070707" opacity="1.000000" stroke="none" 
	d="
M318.428467,560.000000 
	C316.381500,542.436768 314.715088,524.877808 313.156189,507.309265 
	C310.993378,482.935669 308.929443,458.553314 306.787292,434.177856 
	C305.681335,421.593262 304.497803,409.015442 303.301300,395.908508 
	C320.831818,391.389130 337.351440,384.784363 351.900787,372.583069 
	C352.506927,377.675293 353.037201,382.130371 353.680481,387.534637 
	C360.554840,377.702423 368.540405,370.423798 378.848663,366.077911 
	C420.156311,348.662872 465.914886,365.316406 476.570404,412.367828 
	C484.073975,445.501068 475.963318,474.234283 447.895386,494.596893 
	C426.998749,509.756927 403.304047,513.946899 378.425049,504.189301 
	C374.177582,502.523468 370.391785,499.680573 365.555573,496.900177 
	C367.261688,515.453735 368.921997,533.509033 370.643738,552.232422 
	C355.115051,554.590210 339.722748,556.927307 324.165222,559.632202 
	C322.285645,560.000000 320.571289,560.000000 318.428467,560.000000 
M363.057922,419.688202 
	C356.857391,432.901642 357.567169,445.908081 365.228790,458.155151 
	C372.462494,469.718262 383.770325,473.454498 396.768738,471.735443 
	C410.177704,469.962097 419.901215,462.546570 424.625732,449.809601 
	C430.782349,433.211823 425.735901,414.423981 413.434570,405.542175 
	C397.843872,394.285400 373.700958,400.770874 363.057922,419.688202 
z"/>
<path fill="#070707" opacity="1.000000" stroke="none" 
	d="
M1025.000000,346.533875 
	C1018.294006,347.817566 1011.559509,348.451691 1004.887024,349.485535 
	C980.421997,353.276184 955.977173,357.197357 931.525635,361.075287 
	C926.808411,361.823456 922.095276,362.597839 917.357056,363.363861 
	C921.673523,379.420471 938.980896,386.208557 954.402100,384.546844 
	C969.797424,382.887939 982.841797,376.819977 992.619385,363.753235 
	C1002.095276,371.108276 1011.361877,378.300934 1020.979248,385.765839 
	C1015.656250,394.285645 1008.776306,401.041077 1000.595154,406.027649 
	C970.877014,424.141418 939.275696,429.569244 906.386292,416.231964 
	C881.490601,406.136322 868.689453,386.053497 865.962036,359.702698 
	C861.592163,317.483826 889.229248,285.367828 926.355713,275.830780 
	C945.945801,270.798492 965.461182,269.707855 984.571899,277.826416 
	C1006.518250,287.149597 1017.904968,304.739594 1022.801575,327.304169 
	C1023.138550,328.856964 1023.748596,330.350494 1024.615723,331.935791 
	C1025.000000,336.689240 1025.000000,341.378510 1025.000000,346.533875 
M945.840210,307.368195 
	C944.364319,307.603088 942.886353,307.825317 941.412903,308.074799 
	C925.945801,310.694061 914.417175,323.633881 914.778931,338.649811 
	C934.912231,335.523926 954.961609,332.411102 974.993347,329.300995 
	C973.472229,315.703888 962.599854,307.407440 945.840210,307.368195 
z"/>
<path fill="#070707" opacity="1.000000" stroke="none" 
	d="
M510.043396,25.038210 
	C510.459167,29.376671 510.856445,33.267624 511.288544,37.499729 
	C515.402161,33.010845 518.722534,28.656740 522.752380,25.108381 
	C549.384338,1.658416 606.269836,0.780733 629.618591,45.646191 
	C647.532104,80.067589 645.990112,114.862190 622.416626,146.769272 
	C603.006836,173.040756 564.355774,183.088043 536.490723,170.123871 
	C532.373352,168.208267 528.694885,165.349197 524.338501,162.630295 
	C526.597717,187.322739 528.831909,211.741135 531.117798,236.725235 
	C514.041992,239.409576 497.072906,242.077133 479.386993,244.857376 
	C473.136078,172.648224 466.912109,100.750404 460.661011,28.539204 
	C476.961426,25.973394 492.978363,23.452206 509.449341,20.859545 
	C509.652130,22.173956 509.838531,23.382330 510.043396,25.038210 
M518.727234,105.559952 
	C522.241882,120.208420 529.992065,131.353119 545.489502,134.462234 
	C560.797058,137.533234 574.042664,133.021606 583.109558,119.854973 
	C591.818726,107.207787 592.199097,93.114227 588.089355,78.743813 
	C584.203918,65.157898 575.721619,55.615692 561.533081,53.443497 
	C546.882935,51.200645 534.270081,56.071487 525.290466,68.456001 
	C517.327209,79.438705 516.583191,91.839836 518.727234,105.559952 
z"/>
<path fill="#070707" opacity="1.000000" stroke="none" 
	d="
M99.667442,243.392944 
	C87.749725,242.263290 77.363632,238.461594 67.739395,229.596741 
	C69.978210,255.018051 72.086250,278.954437 74.251381,303.539093 
	C57.187393,306.222961 40.359505,308.869690 22.935341,311.610199 
	C16.822401,240.923004 10.733674,170.515747 4.608226,99.683899 
	C20.860746,97.051445 36.703365,94.485382 53.163822,91.819252 
	C53.783211,97.273903 54.383816,102.563179 55.110046,108.958748 
	C61.459026,99.571304 68.563850,92.489189 77.935211,88.115913 
	C117.305138,69.743340 162.986786,84.921471 177.494766,129.847061 
	C187.382950,160.466919 184.500854,189.820999 164.222916,215.797806 
	C148.084686,236.471436 126.023819,244.768509 99.667442,243.392944 
M125.334808,188.792770 
	C133.272629,177.159744 134.381668,164.410141 131.196945,151.099655 
	C128.086517,138.099640 120.852959,128.017944 107.517570,124.766273 
	C93.325325,121.305649 80.361549,124.802780 70.660172,136.455750 
	C61.759518,147.146912 59.999550,159.677460 62.126621,173.088089 
	C64.482964,187.944275 74.538719,199.566254 88.383240,203.111679 
	C101.568375,206.488251 116.041565,201.043671 125.334808,188.792770 
z"/>
<path fill="#070707" opacity="1.000000" stroke="none" 
	d="
M727.281738,310.226562 
	C728.519592,310.969513 729.954224,311.764099 730.045776,312.691345 
	C731.861633,331.076935 733.487244,349.481171 735.222839,367.874878 
	C737.396301,390.908417 739.655884,413.933807 741.827515,436.967529 
	C742.310059,442.085571 742.580322,447.223633 742.970093,452.657043 
	C726.012817,455.318237 709.184021,457.959259 691.687012,460.705170 
	C691.264282,455.037994 690.863342,449.663544 690.414917,443.652252 
	C689.533997,444.442535 689.017212,444.749512 688.714600,445.200287 
	C677.725037,461.574463 661.570557,469.406281 642.720398,471.741333 
	C620.205444,474.530334 599.889526,469.164459 584.503479,451.496063 
	C566.008057,430.257050 561.680176,405.151215 568.278198,378.525696 
	C575.123169,350.903900 593.120544,332.878510 620.428833,324.588928 
	C634.664612,320.267548 649.197388,318.612854 663.531250,323.890533 
	C669.311340,326.018738 674.551147,329.614563 680.441101,332.758240 
	C680.022888,328.109009 679.599731,323.404236 679.097107,317.816437 
	C694.875793,315.346191 710.864441,312.843079 727.281738,310.226562 
M668.881653,361.492188 
	C649.122314,351.338745 624.861816,362.093628 618.666565,384.361908 
	C614.768921,398.371277 617.252319,411.680145 627.859863,422.228088 
	C637.263306,431.578613 648.876343,433.080414 661.127625,428.704895 
	C675.715210,423.495087 683.900391,412.654663 685.534119,397.539490 
	C687.121338,382.855072 682.757935,370.226501 668.881653,361.492188 
z"/>
<path fill="#070707" opacity="1.000000" stroke="none" 
	d="
M380.846832,203.097046 
	C365.203156,203.902527 350.432770,202.209854 336.653412,195.419937 
	C314.012115,184.263229 300.907379,165.744339 296.484772,141.201981 
	C291.543152,113.779457 296.467896,88.582420 315.466522,67.246071 
	C329.813568,51.133701 348.302155,42.907547 369.359131,39.836803 
	C388.927032,36.983212 407.542816,39.330009 424.325867,50.469704 
	C443.325623,63.080750 452.260010,81.900269 456.013763,103.635635 
	C456.967224,109.156372 457.160950,114.808311 457.732788,120.699074 
	C420.560944,126.502220 383.868652,132.230499 347.135162,137.965210 
	C350.950592,151.621002 361.421051,160.559097 375.590515,161.789017 
	C395.683777,163.533127 412.045624,156.425537 424.683197,139.707504 
	C434.451141,147.752640 444.237396,155.812836 454.219025,164.033951 
	C441.879059,182.168915 425.297760,193.827682 404.380829,199.083847 
	C396.837067,200.979492 389.020447,201.789352 380.846832,203.097046 
M377.830536,106.190285 
	C387.738190,104.667664 397.645844,103.145042 407.596405,101.615822 
	C403.022675,82.691559 389.597504,73.917923 371.643097,77.276123 
	C353.303680,80.706345 342.777222,97.625252 344.585693,111.438232 
	C355.391388,109.766426 366.190460,108.095642 377.830536,106.190285 
z"/>
<path fill="#070707" opacity="1.000000" stroke="none" 
	d="
M245.164581,366.899475 
	C220.762070,351.659393 210.125992,325.857727 216.370789,295.287170 
	C221.871170,268.360870 238.946182,250.385803 263.216858,238.917572 
	C281.253418,230.395050 300.346436,227.832169 320.102142,230.778656 
	C346.550323,234.723297 367.691467,256.395264 371.105835,282.942780 
	C375.762329,319.147980 357.225098,351.702209 323.236328,367.180054 
	C305.360870,375.320190 286.707153,378.686951 267.361816,374.967072 
	C259.841736,373.521027 252.763809,369.775360 245.164581,366.899475 
M276.474457,269.876617 
	C262.597504,278.982727 256.472656,291.975830 257.043243,308.393951 
	C257.855560,331.766235 276.106049,345.837067 298.774994,340.302490 
	C320.146362,335.084717 332.210266,313.888611 329.565399,293.541626 
	C327.674011,278.991150 320.381287,268.253937 305.386536,264.677948 
	C295.456482,262.309784 285.947296,264.459229 276.474457,269.876617 
z"/>
<path fill="#070707" opacity="1.000000" stroke="none" 
	d="
M831.548584,396.640930 
	C839.250488,401.636841 846.191650,398.652954 853.059265,395.510101 
	C854.968018,394.636566 856.658325,393.285889 858.896912,391.870911 
	C859.999695,403.589355 861.137573,414.920441 862.037476,426.270386 
	C862.142395,427.593262 861.321777,429.678864 860.272095,430.301727 
	C841.139099,441.655182 820.919495,446.664795 799.437134,438.065613 
	C785.916626,432.653473 778.884155,420.954559 777.016174,407.263336 
	C774.118591,386.025909 772.789795,364.574524 770.794312,343.213959 
	C770.673706,341.922791 770.538330,340.632965 770.366455,338.906158 
	C763.209045,339.987732 756.351501,341.024017 749.105957,342.118927 
	C748.068604,330.793152 747.041809,319.583038 745.952026,307.685120 
	C753.038757,306.458435 760.108032,305.234772 767.487305,303.957458 
	C767.034485,299.270294 766.468689,295.012848 766.299988,290.739746 
	C766.245972,289.370483 766.822388,287.392517 767.821106,286.653107 
	C783.042053,275.384521 798.379944,264.273926 813.702942,253.143600 
	C813.917542,252.987717 814.291504,253.051041 814.945557,252.965942 
	C816.206543,267.143555 817.466248,281.307587 818.771423,295.982117 
	C829.582397,294.304810 840.137390,292.667236 851.026489,290.977783 
	C852.000977,302.425812 852.956726,313.652954 853.963013,325.474609 
	C843.369202,327.231689 832.808044,328.983337 821.826721,330.804688 
	C822.647705,340.739014 823.441467,350.496124 824.264282,360.250854 
	C824.879272,367.541840 825.069946,374.910492 826.327271,382.090912 
	C827.186157,386.996399 829.556213,391.637299 831.548584,396.640930 
z"/>
<path fill="#070707" opacity="1.000000" stroke="none" 
	d="
M536.215820,485.225647 
	C524.327332,487.048218 512.875122,488.816986 501.038910,490.645081 
	C494.563843,417.479858 488.114136,344.600983 481.626099,271.289307 
	C498.777740,268.565277 515.754395,265.869019 533.376831,263.070190 
	C540.053528,336.091949 546.723755,409.042419 553.440430,482.501099 
	C547.672302,483.418701 542.162231,484.295258 536.215820,485.225647 
z"/>
<path fill="#070707" opacity="1.000000" stroke="none" 
	d="
M198.234924,213.660660 
	C194.210220,166.293350 190.229584,119.390778 186.187698,71.766563 
	C202.279648,69.208794 218.424164,66.642662 235.017685,64.005173 
	C235.641449,70.734177 236.263077,77.440147 237.005219,85.446220 
	C247.020645,64.312485 263.473999,55.170624 285.455444,53.577759 
	C286.910797,69.515022 288.325867,85.011383 289.756165,100.674591 
	C284.158508,101.408859 278.555695,101.879883 273.058685,102.913528 
	C255.376877,106.238373 243.830750,119.158806 244.370911,137.109741 
	C244.950516,156.371445 247.136597,175.584763 248.620193,194.819305 
	C249.207535,202.434143 249.791077,210.049271 250.431793,218.385834 
	C233.420410,221.118515 216.644745,223.813324 199.494720,226.568283 
	C199.050156,222.018219 198.664566,218.071808 198.234924,213.660660 
z"/>
<path fill="#070808" opacity="1.000000" stroke="none" 
	d="
M190.202530,404.374329 
	C178.543442,408.351440 167.069946,410.585907 155.078278,408.309082 
	C140.999893,405.636078 132.301254,397.085602 128.964127,383.463348 
	C127.276794,376.575592 126.636887,369.363525 126.181015,362.255890 
	C125.233742,347.486664 124.724861,332.689301 124.018837,317.539917 
	C117.583809,318.548615 111.575989,319.490326 105.080719,320.508453 
	C104.394928,310.070709 103.725449,299.881287 103.029541,289.289612 
	C109.510139,288.199066 115.818802,287.137451 122.381096,286.033142 
	C122.055595,278.744446 121.738861,271.651947 121.405510,264.187500 
	C137.899475,260.973358 152.314499,253.505615 165.745163,242.745041 
	C166.401596,254.981567 167.026703,266.633850 167.678482,278.783722 
	C177.492432,277.135284 186.597260,275.605957 196.274902,273.980408 
	C196.917892,284.147003 197.552750,294.185028 198.237671,305.014618 
	C188.755905,306.597137 179.379440,308.162109 170.336426,309.671387 
	C170.336426,316.711578 170.146530,323.632355 170.384857,330.538300 
	C170.677536,339.019348 171.423584,347.483734 171.801605,355.963013 
	C172.391403,369.193939 180.080185,374.049347 192.285950,368.680908 
	C194.998138,367.488068 197.548309,365.926849 200.675903,364.268616 
	C201.180740,371.818542 201.820862,379.148224 202.128189,386.491821 
	C202.642578,398.783752 202.553253,398.787659 191.008591,404.010193 
	C190.857437,404.078552 190.695160,404.122314 190.202530,404.374329 
z"/>
<path fill="#070707" opacity="1.000000" stroke="none" 
	d="
M194.657745,468.609100 
	C207.461334,461.882599 219.937241,455.301697 232.487335,448.865448 
	C248.106720,440.855072 263.787354,432.964111 280.184418,424.644623 
	C280.805511,431.791931 281.372162,438.482819 281.970917,445.170868 
	C283.572876,463.065460 285.163910,480.961151 286.827942,498.850006 
	C287.052979,501.269287 287.086182,502.959595 284.441345,504.538544 
	C267.918182,514.402710 251.768112,524.903687 235.104767,534.518311 
	C214.967560,546.137268 190.701935,538.739746 180.665283,518.447388 
	C172.352753,501.640839 177.166718,480.475800 194.657745,468.609100 
z"/>
<path fill="#080808" opacity="1.000000" stroke="none" 
	d="
M852.161499,39.157234 
	C842.961548,54.223091 845.958862,68.984375 853.150085,83.717239 
	C859.961304,97.671455 862.064575,112.111389 857.141663,127.175583 
	C853.558594,138.139893 847.199280,147.380219 839.310120,155.617599 
	C822.763916,172.894180 802.689453,185.191116 781.650513,196.068069 
	C775.467896,199.264389 769.124573,202.151962 762.828003,205.123962 
	C761.750183,205.632706 760.536316,205.853088 760.151917,205.971161 
	C774.938599,193.206375 790.683655,180.701859 805.062317,166.785461 
	C813.414062,158.702179 820.316589,148.820023 826.543091,138.912613 
	C836.082947,123.733192 834.899353,107.034615 831.523254,90.117195 
	C829.921631,82.091629 828.848206,73.586807 829.705505,65.529999 
	C831.070923,52.697132 839.268921,44.051373 851.328064,38.710388 
	C851.828552,38.811584 852.161499,39.157234 852.161499,39.157234 
z"/>
<path fill="#080808" opacity="1.000000" stroke="none" 
	d="
M851.673950,38.628036 
	C851.932922,38.339672 852.346375,38.234859 852.759888,38.130043 
	C852.751465,38.404263 852.743042,38.678486 852.448059,39.054970 
	C852.161499,39.157234 851.828552,38.811584 851.673950,38.628036 
z"/>
<path fill="#FCFCFC" opacity="1.000000" stroke="none" 
	d="
M363.203918,419.342285 
	C373.700958,400.770874 397.843872,394.285400 413.434570,405.542175 
	C425.735901,414.423981 430.782349,433.211823 424.625732,449.809601 
	C419.901215,462.546570 410.177704,469.962097 396.768738,471.735443 
	C383.770325,473.454498 372.462494,469.718262 365.228790,458.155151 
	C357.567169,445.908081 356.857391,432.901642 363.203918,419.342285 
z"/>
<path fill="#F9F9F9" opacity="1.000000" stroke="none" 
	d="
M946.273438,307.335449 
	C962.599854,307.407440 973.472229,315.703888 974.993347,329.300995 
	C954.961609,332.411102 934.912231,335.523926 914.778931,338.649811 
	C914.417175,323.633881 925.945801,310.694061 941.412903,308.074799 
	C942.886353,307.825317 944.364319,307.603088 946.273438,307.335449 
z"/>
<path fill="#FDFDFD" opacity="1.000000" stroke="none" 
	d="
M518.637451,105.134048 
	C516.583191,91.839836 517.327209,79.438705 525.290466,68.456001 
	C534.270081,56.071487 546.882935,51.200645 561.533081,53.443497 
	C575.721619,55.615692 584.203918,65.157898 588.089355,78.743813 
	C592.199097,93.114227 591.818726,107.207787 583.109558,119.854973 
	C574.042664,133.021606 560.797058,137.533234 545.489502,134.462234 
	C529.992065,131.353119 522.241882,120.208420 518.637451,105.134048 
z"/>
<path fill="#FCFCFC" opacity="1.000000" stroke="none" 
	d="
M125.121841,189.082031 
	C116.041565,201.043671 101.568375,206.488251 88.383240,203.111679 
	C74.538719,199.566254 64.482964,187.944275 62.126621,173.088089 
	C59.999550,159.677460 61.759518,147.146912 70.660172,136.455750 
	C80.361549,124.802780 93.325325,121.305649 107.517570,124.766273 
	C120.852959,128.017944 128.086517,138.099640 131.196945,151.099655 
	C134.381668,164.410141 133.272629,177.159744 125.121841,189.082031 
z"/>
<path fill="#FCFCFC" opacity="1.000000" stroke="none" 
	d="
M669.184082,361.711273 
	C682.757935,370.226501 687.121338,382.855072 685.534119,397.539490 
	C683.900391,412.654663 675.715210,423.495087 661.127625,428.704895 
	C648.876343,433.080414 637.263306,431.578613 627.859863,422.228088 
	C617.252319,411.680145 614.768921,398.371277 618.666565,384.361908 
	C624.861816,362.093628 649.122314,351.338745 669.184082,361.711273 
z"/>
<path fill="#FAFAFA" opacity="1.000000" stroke="none" 
	d="
M377.410034,106.307571 
	C366.190460,108.095642 355.391388,109.766426 344.585693,111.438232 
	C342.777222,97.625252 353.303680,80.706345 371.643097,77.276123 
	C389.597504,73.917923 403.022675,82.691559 407.596405,101.615822 
	C397.645844,103.145042 387.738190,104.667664 377.410034,106.307571 
z"/>
<path fill="#FCFCFC" opacity="1.000000" stroke="none" 
	d="
M276.786072,269.681274 
	C285.947296,264.459229 295.456482,262.309784 305.386536,264.677948 
	C320.381287,268.253937 327.674011,278.991150 329.565399,293.541626 
	C332.210266,313.888611 320.146362,335.084717 298.774994,340.302490 
	C276.106049,345.837067 257.855560,331.766235 257.043243,308.393951 
	C256.472656,291.975830 262.597504,278.982727 276.786072,269.681274 
z"/>
</svg>